<svg width="460" height="120" viewBox="0 0 460 120" fill="none" xmlns="http://www.w3.org/2000/svg">
<g clip-path="url(#clip0_1637_1492)">
<path fill-rule="evenodd" clip-rule="evenodd" d="M51.8529 15.5991C59.8233 18.283 63.773 27.6206 60.6746 36.4596C57.5761 45.2985 48.6025 50.2888 40.6321 47.6C32.6618 44.9111 28.7121 35.5784 31.8105 26.742C34.909 17.9057 43.875 12.9178 51.8529 15.5991Z" fill="#00A687"/>
<path fill-rule="evenodd" clip-rule="evenodd" d="M0 65.2575C0.000867075 71.2536 0.693695 77.2296 2.06478 83.067C6.69599 102.641 19.2773 120 41.3338 120C53.6643 120 71.1681 110.379 79.8099 105.533C84.7451 102.748 86.2779 100.76 97.4328 105.404C122.405 115.797 158.143 135.293 158.685 88.7714C158.956 65.5487 143.142 41.8196 125.18 41.8196C110.065 41.8196 97.3745 53.1398 79.4045 63.551C60.6567 74.418 42.7576 85.1255 28.0178 85.1255C7.31417 85.1255 0 72.4026 0 65.2575Z" fill="#A6FF00"/>
<path d="M28.0178 85.128C38.9498 85.128 51.6198 79.2362 65.0853 71.7594C46.5731 61.3204 32.5224 46.4403 17.8636 46.4403C15.4531 46.5004 13.0782 47.0352 10.8748 48.0141C8.67152 48.9931 6.68314 50.3969 5.02367 52.1452C3.3642 53.8935 2.06624 55.9518 1.20419 58.2023C0.342133 60.4528 -0.0670657 62.8512 1.37559e-05 65.2601C1.37559e-05 72.395 7.31418 85.128 28.0178 85.128Z" fill="#00A687"/>
<path fill-rule="evenodd" clip-rule="evenodd" d="M102.545 1.88571e-05C112.912 -0.0151726 121.762 9.15037 122.307 20.4756C122.851 31.8009 114.899 40.9841 104.532 41.0069C94.1647 41.0297 85.3152 31.8565 84.7705 20.5313C84.2258 9.20604 92.1809 0.0152103 102.545 1.88571e-05Z" fill="#A6FF00"/>
<path style="mix-blend-mode:multiply" d="M97.4329 105.403C117.675 113.827 144.989 128.229 154.897 108.609C157.226 103.922 156.519 88.2549 133.289 88.2549C109.913 88.2549 87.0228 101.276 79.8099 105.533C84.7452 102.76 86.278 100.76 97.4329 105.403Z" fill="url(#paint0_linear_1637_1492)"/>
<path d="M205.174 36.8342L202.879 36.0747C201.866 35.7101 201.476 35.9126 201.009 36.9254C200.488 38.1777 199.569 39.2242 198.395 39.9039C197.22 40.5837 195.855 40.8591 194.508 40.6878C190.131 40.6878 187.711 38.6243 187.711 34.9024V25.9622C187.711 22.2403 190.133 20.2173 194.508 20.2173C195.851 20.0357 197.216 20.3021 198.391 20.9751C199.567 21.6481 200.487 22.69 201.009 23.9392C201.392 24.9089 201.818 25.1115 202.836 24.7874L205.172 24.0278C206.107 23.7038 206.403 23.0986 206.064 22.2555C204.407 17.7639 200.541 15.5004 194.506 15.5004C186.731 15.5004 182.345 19.5058 182.345 26.0179V34.8796C182.345 41.4626 186.721 45.4377 194.506 45.4377C200.586 45.4377 204.452 43.1725 206.104 38.642C206.191 38.4648 206.236 38.2696 206.234 38.0721C206.233 37.8746 206.185 37.6802 206.094 37.5045C206.004 37.3288 205.874 37.1767 205.714 37.0603C205.554 36.9439 205.369 36.8665 205.174 36.8342Z" fill="#00A687"/>
<path d="M222.587 23.2429C218.252 23.2429 215.321 24.6583 213.791 27.451C213.322 28.2612 213.578 28.8663 214.513 29.2714L216.213 29.9575C217.191 30.2816 217.403 30.2108 218.039 29.3499C218.558 28.6752 219.239 28.143 220.019 27.8034C220.8 27.4637 221.654 27.3277 222.501 27.4079C225.561 27.4079 226.75 28.7827 226.75 31.4134V32.5477C224.328 32.4262 222.967 32.3452 222.671 32.3452C215.744 32.3452 213.026 34.0441 213.026 38.8572C212.949 39.7813 213.093 40.7103 213.445 41.5681C213.798 42.4259 214.348 43.188 215.052 43.7919C217.298 45.1017 219.901 45.6681 222.488 45.4098C225.08 45.5255 227.672 45.1695 230.137 44.3591C231.328 43.8729 231.657 43.4679 231.657 42.0525V31.5755C231.692 26.0331 228.667 23.2429 222.587 23.2429ZM226.752 40.6372C226.752 40.9207 226.582 41.0828 226.286 41.2043C224.883 41.4457 223.461 41.5542 222.037 41.5284C218.936 41.5284 218.044 40.6372 218.044 38.8192C218.044 37.0469 219.058 36.1886 222.123 36.1886C222.25 36.1886 223.78 36.2696 226.755 36.3911L226.752 40.6372Z" fill="#00A687"/>
<path d="M251.322 23.2429H249.961C247.28 23.2424 244.615 23.6514 242.057 24.4557C240.696 24.9824 240.4 25.4685 240.4 26.7623V43.5514C240.4 44.4806 240.739 44.8174 241.717 44.8174H244.053C245.031 44.8174 245.32 44.4933 245.32 43.5514V28.5017C245.313 28.4412 245.318 28.3798 245.336 28.3215C245.354 28.2632 245.384 28.2093 245.424 28.1634C245.464 28.1175 245.514 28.0806 245.569 28.0551C245.624 28.0297 245.685 28.0162 245.746 28.0156C247.062 27.6661 248.42 27.5024 249.782 27.5294H251.302C252.279 27.5294 252.619 27.2054 252.619 26.2635V24.4912C252.642 23.5265 252.3 23.2429 251.322 23.2429Z" fill="#00A687"/>
<path d="M271.592 23.8481H266.748V20.2072C266.748 19.2779 266.409 18.9944 265.431 18.9944H263.136C262.158 18.9944 261.818 19.2779 261.818 20.2072V23.8481H258.887C257.909 23.8481 257.62 24.1316 257.62 25.0609V26.9218C257.62 27.851 257.917 28.1878 258.887 28.1878H261.813V36.4798C261.663 37.7549 261.782 39.0474 262.162 40.2737C262.543 41.5001 263.176 42.6331 264.022 43.5995C266.222 45.1038 268.904 45.7356 271.544 45.3719C272.558 45.3314 272.905 45.0478 272.905 44.0781V42.2171C272.905 41.2448 272.565 40.9511 271.544 40.9511C270.218 41.1067 268.879 40.7912 267.762 40.0599C267.353 39.5304 267.053 38.9254 266.879 38.2797C266.705 37.634 266.661 36.9604 266.748 36.2975V28.1675H271.592C272.57 28.1675 272.91 27.8434 272.91 26.9016V25.0406C272.91 24.1317 272.57 23.8481 271.592 23.8481Z" fill="#00A687"/>
<path d="M282.937 20.8148H284.341C284.444 20.8291 284.549 20.8193 284.648 20.7862C284.747 20.7531 284.836 20.6975 284.91 20.624C284.984 20.5504 285.039 20.4607 285.072 20.362C285.105 20.2633 285.115 20.1584 285.101 20.0553C285.101 19.0425 285.44 18.5184 286.114 18.5184C287.012 18.6595 287.852 19.0519 288.536 19.6501C289.407 20.3544 290.478 20.7648 291.597 20.8224C294.102 20.8224 295.207 19.5286 295.207 16.2928C295.207 15.7662 294.954 15.5332 294.399 15.5332H293.038C292.486 15.5332 292.23 15.7864 292.23 16.2928C292.23 17.3056 291.891 17.8297 291.252 17.8297C290.369 17.657 289.548 17.2523 288.873 16.6574C287.944 15.9467 286.813 15.5503 285.643 15.5257C283.307 15.5257 282.116 16.8195 282.116 20.0553C282.139 20.5718 282.393 20.8148 282.937 20.8148Z" fill="#00A687"/>
<path d="M288.886 23.2429C284.551 23.2429 281.62 24.6583 280.09 27.451C279.623 28.2612 279.877 28.8663 280.812 29.2714L282.512 29.9575C283.49 30.2816 283.7 30.2108 284.338 29.3499C284.857 28.6752 285.538 28.143 286.318 27.8034C287.099 27.4637 287.952 27.3277 288.8 27.4079C291.858 27.4079 293.048 28.7827 293.048 31.4134V32.5477C290.626 32.4262 289.268 32.3452 288.97 32.3452C282.043 32.3452 279.325 34.0441 279.325 38.8572C279.25 39.7823 279.395 40.712 279.75 41.5699C280.105 42.4278 280.658 43.1893 281.364 43.7919C283.61 45.1019 286.213 45.6682 288.8 45.4098C291.392 45.5256 293.984 45.1696 296.448 44.3591C297.639 43.8729 297.968 43.4679 297.968 42.0525V31.5755C297.979 26.0331 294.966 23.2429 288.886 23.2429ZM293.048 40.6372C293.048 40.9207 292.879 41.0828 292.582 41.2043C291.179 41.4458 289.757 41.5543 288.334 41.5284C285.233 41.5284 284.341 40.6372 284.341 38.8192C284.341 37.0469 285.354 36.1886 288.42 36.1886C288.549 36.1886 290.077 36.2696 293.051 36.3911L293.048 40.6372Z" fill="#00A687"/>
<path d="M315.827 23.2429C309.582 23.2429 306.053 26.2812 306.053 31.345V37.333C306.053 42.3969 309.579 45.4351 315.827 45.4351C322.115 45.4351 325.642 42.3969 325.642 37.333V31.345C325.642 26.2762 322.115 23.2429 315.827 23.2429ZM320.714 37.3204C320.714 39.7485 318.941 41.1638 315.827 41.1638C312.713 41.1638 310.983 39.7485 310.983 37.3204V31.3324C310.983 28.8638 312.726 27.489 315.827 27.489C318.928 27.489 320.714 28.8638 320.714 31.3324V37.3204Z" fill="#00A687"/>
<path d="M364.521 14.8674H362.182C361.207 14.8674 360.915 15.1915 360.915 16.1333V23.7797C359.244 23.461 357.549 23.2848 355.849 23.2531C349.943 23.2531 346.969 26.2053 346.969 31.7071V37.2495C346.969 42.7108 350.029 45.42 356.19 45.42C358.893 45.4431 361.58 45.0055 364.136 44.1262C365.496 43.5995 365.835 43.1969 365.835 41.9006V16.1207C365.846 15.194 365.499 14.8674 364.521 14.8674ZM360.908 40.2321C360.906 40.3327 360.872 40.43 360.811 40.5101C360.75 40.5901 360.665 40.6488 360.568 40.6777C359.289 40.9873 357.976 41.137 356.659 41.1233C353.472 41.1233 351.899 39.789 351.899 37.0723V31.8134C351.899 28.9423 353.515 27.5244 356.786 27.5244C358.174 27.5585 359.555 27.7349 360.908 28.051V40.2321Z" fill="#00A687"/>
<path d="M391.928 35.8164C393.195 35.8164 393.841 35.2493 393.841 34.077V31.6084C393.841 26.7142 390.484 23.2353 384.026 23.2353C377.611 23.2353 374.168 26.3091 374.168 31.973V36.7456C374.168 42.0449 377.312 45.4022 383.942 45.4022C388.405 45.4022 391.464 44.1076 393.121 41.5183C393.76 40.5891 393.59 39.9409 392.614 39.4928L391.127 38.7332C390.114 38.2065 389.64 38.2876 388.961 39.2193C388.375 39.9708 387.607 40.5615 386.731 40.9365C385.854 41.3115 384.896 41.4585 383.947 41.3638C380.846 41.3638 379.103 39.9485 379.103 37.3128V35.8164H391.928ZM379.096 31.3248C379.096 28.6967 380.836 27.1978 384.023 27.1978C387.254 27.1978 388.911 28.6942 388.911 31.3248V32.216H379.096V31.3248Z" fill="#00A687"/>
<path d="M315.495 58.4872C308.876 58.4765 302.295 59.493 295.987 61.5002C295.987 68.1945 295.987 96.6507 295.987 100.795C295.987 108.875 300.654 114.974 317.958 114.974C321.667 114.987 325.342 114.264 328.77 112.847C332.198 111.431 335.311 109.349 337.929 106.722C340.546 104.095 342.616 100.975 344.019 97.543C345.422 94.1112 346.13 90.4352 346.102 86.7281C346.12 71.7848 334.891 58.4872 315.495 58.4872ZM317.988 100.092C311.35 100.251 310.524 99.0231 310.524 95.3999C310.524 92.468 310.57 74.1977 310.57 74.1977C312.445 73.5453 314.412 73.1907 316.397 73.1469C326.176 73.1469 331.345 79.7299 331.345 86.48C331.363 90.0502 329.97 93.4832 327.469 96.0322C324.967 98.5813 321.56 100.04 317.988 100.092Z" fill="#00A687"/>
<path d="M441.166 80.8642C434.941 79.2969 429.053 78.6691 428.681 76.0105C428.428 74.1926 430.604 72.6279 435.108 72.6279C443.276 72.4417 451.335 74.5215 458.391 78.6361V69.7744C458.391 64.3789 452.506 58.5251 437.46 58.5251C420.624 58.5251 413.723 66.8804 413.723 76.2359C413.723 86.7078 421.494 90.2551 431.557 92.3945C442.993 94.8277 445.042 95.843 445.042 97.7116C445.042 100.279 441.224 100.879 438.62 100.879C430.454 101.05 422.399 98.9713 415.337 94.8707C415.337 94.8707 415.307 101.507 415.302 103.717C415.302 109.113 420.784 114.974 435.524 114.974C449.826 114.974 457.021 108.92 459.085 102.061C464.378 84.4848 445.265 81.8972 441.166 80.8642Z" fill="#00A687"/>
<path d="M261.015 58.4568C255.422 58.4568 249.955 60.1143 245.304 63.2196C240.654 66.325 237.029 70.7388 234.889 75.9029C232.748 81.067 232.188 86.7493 233.28 92.2315C234.371 97.7136 237.064 102.749 241.019 106.702C244.974 110.654 250.013 113.346 255.498 114.436C260.984 115.527 266.67 114.967 271.837 112.828C277.004 110.689 281.421 107.067 284.528 102.419C287.635 97.7715 289.294 92.3075 289.294 86.718C289.294 83.0067 288.562 79.3317 287.141 75.9029C285.72 72.4741 283.637 69.3586 281.011 66.7343C278.385 64.11 275.268 62.0283 271.837 60.608C268.406 59.1878 264.729 58.4568 261.015 58.4568ZM261.015 100.216C258.344 100.216 255.732 99.424 253.511 97.9408C251.29 96.4577 249.559 94.3497 248.537 91.8833C247.515 89.4169 247.247 86.703 247.768 84.0847C248.29 81.4664 249.576 79.0614 251.465 77.1737C253.354 75.286 255.76 74.0005 258.38 73.4797C261 72.9589 263.716 73.2262 266.184 74.2478C268.651 75.2694 270.761 76.9994 272.245 79.2191C273.729 81.4388 274.521 84.0484 274.521 86.718C274.521 90.2978 273.098 93.7309 270.565 96.2622C268.032 98.7935 264.597 100.216 261.015 100.216Z" fill="#00A687"/>
<path d="M380.423 58.4568C374.83 58.4568 369.363 60.1143 364.712 63.2196C360.062 66.325 356.437 70.7388 354.297 75.9029C352.157 81.067 351.597 86.7493 352.688 92.2315C353.779 97.7136 356.472 102.749 360.427 106.702C364.382 110.654 369.421 113.346 374.906 114.436C380.392 115.527 386.078 114.967 391.245 112.828C396.412 110.689 400.829 107.067 403.936 102.419C407.043 97.7715 408.702 92.3075 408.702 86.718C408.702 83.0067 407.971 79.3317 406.549 75.9029C405.128 72.4741 403.045 69.3586 400.419 66.7343C397.793 64.11 394.676 62.0283 391.245 60.608C387.814 59.1878 384.137 58.4568 380.423 58.4568ZM380.423 100.216C377.752 100.216 375.141 99.424 372.92 97.9408C370.699 96.4577 368.968 94.3497 367.945 91.8833C366.923 89.4169 366.656 86.703 367.177 84.0847C367.698 81.4664 368.984 79.0614 370.873 77.1737C372.762 75.286 375.168 74.0005 377.788 73.4797C380.408 72.9589 383.124 73.2262 385.592 74.2478C388.06 75.2694 390.169 76.9994 391.653 79.2191C393.137 81.4388 393.929 84.0484 393.929 86.718C393.929 90.2978 392.506 93.7309 389.974 96.2622C387.441 98.7935 384.005 100.216 380.423 100.216Z" fill="#00A687"/>
<path d="M232.835 55.4489C232.835 55.4489 198.195 59.6721 186.652 61.1153C185.32 61.2882 184.097 61.9401 183.211 62.9489C182.325 63.9578 181.837 65.2546 181.839 66.5969V73.0456H199.768V106.869C199.768 112.48 203.338 114.478 207.923 114.478H214.596V73.0456H224.566C226.762 73.0456 228.867 72.1739 230.42 70.6222C231.973 69.0704 232.845 66.9659 232.845 64.7714L232.835 55.4489Z" fill="#00A687"/>
</g>
<defs>
<linearGradient id="paint0_linear_1637_1492" x1="81.1015" y1="112.645" x2="120.528" y2="68.5751" gradientUnits="userSpaceOnUse">
<stop stop-color="#00A988" stop-opacity="0.698"/>
<stop offset="1" stop-color="#00A988" stop-opacity="0.051"/>
</linearGradient>
<clipPath id="clip0_1637_1492">
<rect width="460" height="120" fill="white"/>
</clipPath>
</defs>
</svg>
